<svg class="railroad-diagram" width="407" height="212" viewBox="0 0 407 212" xmlns="http://www.w3.org/2000/svg" xmlns:xlink="http://www.w3.org/1999/xlink">
<g transform="translate(.5 .5)">
<g>
<path d="M20 81v20m10 -20v20m-10 -10h20"></path>
</g>
<path d="M40 91h10"></path>
<g>
<path d="M50 91h0"></path>
<path d="M357 91h0"></path>
<g class="non-terminal">
<path d="M50 91h0"></path>
<path d="M155 91h0"></path>
<rect x="50" y="80" width="105" height="22"></rect>
<text x="102.5" y="95">identifier</text>
</g>
<path d="M155 91h10"></path>
<g>
<path d="M165 91h0"></path>
<path d="M242 91h0"></path>
<path d="M165 91a10 10 0 0 0 10 -10v-10a10 10 0 0 1 10 -10"></path>
<g class="terminal">
<path d="M185 61h0"></path>
<path d="M222 61h0"></path>
<rect x="185" y="50" width="37" height="22" rx="10" ry="10"></rect>
<text x="203.5" y="65">!=</text>
</g>
<path d="M222 61a10 10 0 0 1 10 10v10a10 10 0 0 0 10 10"></path>
<path d="M165 91a10 10 0 0 0 10 -10v-40a10 10 0 0 1 10 -10"></path>
<g class="terminal">
<path d="M185 31h0"></path>
<path d="M222 31h0"></path>
<rect x="185" y="20" width="37" height="22" rx="10" ry="10"></rect>
<text x="203.5" y="35">==</text>
</g>
<path d="M222 31a10 10 0 0 1 10 10v40a10 10 0 0 0 10 10"></path>
<path d="M165 91h20"></path>
<g class="terminal">
<path d="M185 91h4.25"></path>
<path d="M217.75 91h4.25"></path>
<rect x="189.25" y="80" width="28.5" height="22" rx="10" ry="10"></rect>
<text x="203.5" y="95">></text>
</g>
<path d="M222 91h20"></path>
<path d="M165 91a10 10 0 0 1 10 10v10a10 10 0 0 0 10 10"></path>
<g class="terminal">
<path d="M185 121h4.25"></path>
<path d="M217.75 121h4.25"></path>
<rect x="189.25" y="110" width="28.5" height="22" rx="10" ry="10"></rect>
<text x="203.5" y="125">&#60;</text>
</g>
<path d="M222 121a10 10 0 0 0 10 -10v-10a10 10 0 0 1 10 -10"></path>
<path d="M165 91a10 10 0 0 1 10 10v40a10 10 0 0 0 10 10"></path>
<g class="terminal">
<path d="M185 151h0"></path>
<path d="M222 151h0"></path>
<rect x="185" y="140" width="37" height="22" rx="10" ry="10"></rect>
<text x="203.5" y="155">>=</text>
</g>
<path d="M222 151a10 10 0 0 0 10 -10v-40a10 10 0 0 1 10 -10"></path>
<path d="M165 91a10 10 0 0 1 10 10v70a10 10 0 0 0 10 10"></path>
<g class="terminal">
<path d="M185 181h0"></path>
<path d="M222 181h0"></path>
<rect x="185" y="170" width="37" height="22" rx="10" ry="10"></rect>
<text x="203.5" y="185">&#60;=</text>
</g>
<path d="M222 181a10 10 0 0 0 10 -10v-70a10 10 0 0 1 10 -10"></path>
</g>
<path d="M242 91h10"></path>
<g class="non-terminal">
<path d="M252 91h0"></path>
<path d="M357 91h0"></path>
<rect x="252" y="80" width="105" height="22"></rect>
<text x="304.5" y="95">identifier</text>
</g>
</g>
<path d="M357 91h10"></path>
<path d="M 367 91 h 20 m -10 -10 v 20 m 10 -20 v 20"></path>
</g>
<style>
	svg {
		background-color: hsl(30,20%,95%);
	}
	path {
		stroke-width: 3;
		stroke: black;
		fill: rgba(0,0,0,0);
	}
	text {
		font: bold 14px monospace;
		text-anchor: middle;
		white-space: pre;
	}
	text.diagram-text {
		font-size: 12px;
	}
	text.diagram-arrow {
		font-size: 16px;
	}
	text.label {
		text-anchor: start;
	}
	text.comment {
		font: italic 12px monospace;
	}
	g.non-terminal text {
		/&#42;font-style: italic;&#42;/
	}
	rect {
		stroke-width: 3;
		stroke: black;
		fill: hsl(120,100%,90%);
	}
	rect.group-box {
		stroke: gray;
		stroke-dasharray: 10 5;
		fill: none;
	}
	path.diagram-text {
		stroke-width: 3;
		stroke: black;
		fill: white;
		cursor: help;
	}
	g.diagram-text:hover path.diagram-text {
		fill: #eee;
	}</style>
</svg>
